<?xml version="1.0" standalone="no"?>
<!DOCTYPE svg PUBLIC "-//W3C//DTD SVG 20010904//EN"
 "http://www.w3.org/TR/2001/REC-SVG-20010904/DTD/svg10.dtd">
<svg version="1.0" xmlns="http://www.w3.org/2000/svg"
 width="313.000000pt" height="313.000000pt" viewBox="0 0 313.000000 313.000000"
 preserveAspectRatio="xMidYMid meet">
<metadata>
Created by potrace 1.11, written by Peter Selinger 2001-2013
</metadata>
<g transform="translate(0.000000,313.000000) scale(0.100000,-0.100000)"
fill="#000000" stroke="none">
<path d="M1195 3116 c-141 -33 -305 -155 -401 -296 -17 -25 -57 -96 -89 -159
-32 -63 -84 -148 -116 -190 -105 -140 -272 -291 -385 -349 -48 -24 -68 -46
-61 -66 3 -8 32 -33 64 -57 122 -88 213 -214 228 -313 5 -33 0 -47 -40 -107
-79 -120 -160 -296 -200 -434 -17 -61 -21 -77 -30 -130 -3 -16 -7 -43 -10 -60
-13 -71 -5 -220 15 -299 85 -338 245 -527 528 -622 84 -28 110 -32 212 -33
153 -2 198 8 345 80 132 65 379 251 490 369 17 17 62 50 100 72 255 148 386
342 556 823 23 66 53 147 66 180 25 61 112 199 155 245 13 14 41 46 62 70 22
25 90 99 152 165 141 150 162 177 146 183 -83 27 -247 139 -328 224 -106 109
-144 180 -175 328 -40 181 -117 292 -246 353 -61 28 -78 31 -163 32 -71 0
-113 -6 -165 -22 -82 -26 -201 -94 -266 -152 l-46 -40 -37 59 c-39 63 -92 111
-150 135 -48 20 -149 25 -211 11z"/>
</g>
</svg>
